<?xml version="1.0" encoding="UTF-8"?>
<svg xmlns="http://www.w3.org/2000/svg" width="1200" height="675" viewBox="0 0 1200 675" role="img" aria-labelledby="cover-title cover-desc">
  <title id="cover-title">Practical ways small businesses can use AI automation</title>
  <desc id="cover-desc">Dark editorial cover with neural network nodes for AI automation in small business</desc>
  <defs>
    <radialGradient id="glow" cx="20%" cy="15%" r="72%">
      <stop offset="0%" stop-color="#b32bf9" stop-opacity="0.42"/>
      <stop offset="52%" stop-color="#4f8cff" stop-opacity="0.13"/>
      <stop offset="100%" stop-color="#050508" stop-opacity="0"/>
    </radialGradient>
    <linearGradient id="lineGrad" x1="0" x2="1" y1="0" y2="1">
      <stop offset="0%" stop-color="#b32bf9"/>
      <stop offset="100%" stop-color="#4f8cff"/>
    </linearGradient>
    <filter id="softGlow" x="-40%" y="-40%" width="180%" height="180%">
      <feGaussianBlur stdDeviation="14" result="blur"/>
      <feMerge><feMergeNode in="blur"/><feMergeNode in="SourceGraphic"/></feMerge>
    </filter>
  </defs>
  <rect width="1200" height="675" fill="#050508"/>
  <rect width="1200" height="675" fill="url(#glow)"/>
  <path d="M690 120 C820 70 950 92 1110 36" stroke="url(#lineGrad)" stroke-width="2" opacity="0.38" fill="none"/>
  <path d="M650 570 C820 480 930 520 1160 410" stroke="url(#lineGrad)" stroke-width="2" opacity="0.32" fill="none"/>
  <g opacity="0.18" stroke="rgba(255,255,255,0.6)" stroke-width="1">
    <path d="M76 554 H1118"/><path d="M76 487 H1118"/><path d="M76 420 H1118"/>
    <path d="M156 88 V610"/><path d="M266 88 V610"/><path d="M376 88 V610"/>
  </g>
  <g transform="translate(760 150)" filter="url(#softGlow)"><circle cx="80" cy="80" r="28" fill="url(#lineGrad)"/><circle cx="260" cy="120" r="30" fill="url(#lineGrad)"/><circle cx="150" cy="260" r="34" fill="url(#lineGrad)"/><circle cx="312" cy="285" r="22" fill="url(#lineGrad)"/><path stroke="url(#lineGrad)" stroke-width="12" stroke-linecap="round" stroke-linejoin="round" fill="none" d="M106 90 L230 112 M94 104 L140 230 M177 250 L288 282 M248 146 L166 232"/></g>
  <text x="86" y="92" fill="#b32bf9" font-family="Inter, Arial, sans-serif" font-size="22" font-weight="700" letter-spacing="5">ARTIFICIAL INTELLIGENCE</text>
  <g font-family="Outfit, Inter, Arial, sans-serif" font-weight="700" fill="#ffffff">
    <text x="86" y="238" font-size="64">Practical ways small</text>
    <text x="86" y="310" font-size="64">businesses can use AI</text>
    <text x="86" y="382" font-size="64">automation</text>
  </g>
  <text x="86" y="588" fill="rgba(255,255,255,0.74)" font-family="Inter, Arial, sans-serif" font-size="24" font-weight="600">ESY TECH CREATIVE</text>
  <rect x="84" y="616" width="180" height="3" rx="1.5" fill="url(#lineGrad)"/>
</svg>